<?xml version="1.0" encoding="UTF-8"?>
<svg xmlns="http://www.w3.org/2000/svg" xmlns:xlink="http://www.w3.org/1999/xlink" width="16px" height="16px" viewBox="0 0 16 18" version="1.1">
<g id="surface1">
<path style=" stroke:none;fill-rule:nonzero;fill:rgb(0%,0%,0%);fill-opacity:1;" d="M 14.550781 1.125 L 1.449219 1.125 C 0.648438 1.125 0 1.765625 0 2.550781 L 0 15.449219 C 0 16.234375 0.648438 16.875 1.449219 16.875 L 14.550781 16.875 C 15.351562 16.875 16 16.234375 16 15.449219 L 16 2.550781 C 16 1.765625 15.351562 1.125 14.550781 1.125 Z M 6.289062 5.117188 C 6.304688 5.941406 5.488281 6.078125 5.339844 6.082031 C 4.808594 6.082031 4.371094 5.660156 4.371094 5.132812 C 4.375 3.894531 6.269531 3.882812 6.289062 5.117188 Z M 11.886719 13.253906 C 9.542969 13.253906 10.667969 10.652344 10.992188 9.507812 C 11.496094 7.875 9.378906 7.433594 8.855469 9.53125 L 7.933594 13.164062 L 6.320312 13.164062 L 6.609375 12.019531 C 5.484375 13.839844 3.230469 13.582031 3.230469 11.867188 C 3.234375 11.367188 3.265625 11.375 4.054688 8.207031 L 2.917969 8.207031 L 3.265625 6.957031 L 5.992188 6.957031 C 4.792969 11.65625 4.828125 11.417969 4.816406 11.816406 C 4.816406 12.550781 6.277344 12.289062 6.867188 11 L 7.574219 8.207031 L 6.421875 8.207031 L 6.769531 6.957031 L 9.226562 6.957031 L 8.90625 8.382812 C 10.355469 5.726562 13.476562 6.699219 12.542969 9.71875 C 12.035156 11.515625 12.019531 11.5 12.011719 11.785156 C 12.011719 12.328125 12.636719 12.578125 13.144531 11.191406 L 13.785156 11.425781 C 13.410156 12.714844 12.734375 13.253906 11.886719 13.253906 Z M 11.886719 13.253906 "/>
</g>
</svg>
